<svg xmlns="http://www.w3.org/2000/svg" version="1.1" xmlns:xlink="http://www.w3.org/1999/xlink" xmlns:svgjs="http://svgjs.dev/svgjs" width="1500" height="1500" viewBox="0 0 1500 1500"><rect width="1500" height="1500" fill="#ffffff"></rect><g transform="matrix(0.6666666666666666,0,0,0.6666666666666666,249.50000000000006,249.50000000000006)"><svg viewBox="0 0 280 280" data-background-color="#ffffff" preserveAspectRatio="xMidYMid meet" height="1500" width="1500" xmlns="http://www.w3.org/2000/svg" xmlns:xlink="http://www.w3.org/1999/xlink"><g id="tight-bounds" transform="matrix(1,0,0,1,0.13999999999998636,0.13999999999998636)"><svg viewBox="0 0 279.72 279.72" height="279.72" width="279.72"><g><svg viewBox="0 0 279.72 279.72" height="279.72" width="279.72"><g><svg viewBox="0 0 279.72 279.72" height="279.72" width="279.72"><g id="textblocktransform"><svg viewBox="0 0 279.72 279.72" height="279.72" width="279.72" id="textblock"><g><svg viewBox="0 0 279.72 279.72" height="279.72" width="279.72"><g transform="matrix(1,0,0,1,57.446704652707865,57.446704652707865)"><svg viewBox="0 0 164.8265906945843 164.8265906945843" height="164.8265906945843" width="164.8265906945843"><g><circle r="82" cx="82.41329534729215" cy="82.41329534729215" fill="#000000" data-fill-palette-color="accent"></circle></g></svg></g><g><path d="M20.521 90.578l0.517 2.554-1.184 0.252-0.526-2.558c-0.393-2.097-1.653-3.495-3.781-4.196v0c-3.98-1.311-6.967 1.062-8.963 7.118v0l-1.166 3.539 25.788 8.497-0.381 1.157-26.936-8.874 1.547-4.697c1.116-3.388 2.578-5.736 4.384-7.045 1.813-1.306 3.848-1.587 6.105-0.843v0c2.565 0.845 4.098 2.544 4.596 5.096z" fill="#000000" data-fill-palette-color="primary"></path><path d="M35.425 51.7c-0.776 0.56-1.57 1.382-2.382 2.465-0.808 1.078-1.375 2.07-1.701 2.977-0.325 0.907-0.411 1.901-0.256 2.981 0.158 1.075 0.711 2.205 1.658 3.39 0.953 1.189 2.325 2.456 4.118 3.8 1.792 1.345 3.39 2.306 4.792 2.885 1.408 0.582 2.65 0.799 3.727 0.651 1.075-0.158 2.002-0.52 2.782-1.086 0.78-0.566 1.574-1.387 2.383-2.465 0.813-1.083 1.379-2.075 1.7-2.977 0.325-0.907 0.413-1.899 0.265-2.975-0.158-1.075-0.714-2.207-1.667-3.396-0.947-1.185-2.317-2.45-4.109-3.795-1.792-1.345-3.392-2.308-4.801-2.89-1.403-0.578-2.642-0.793-3.718-0.645-1.08 0.154-2.011 0.514-2.791 1.08zM53.573 60.505c0.659 2.314-0.025 4.822-2.052 7.524-2.027 2.702-4.244 4.06-6.65 4.075-2.415 0.016-5.329-1.256-8.74-3.816-3.417-2.564-5.452-5.005-6.107-7.324-0.659-2.314 0.025-4.822 2.052-7.524 2.027-2.702 4.244-4.06 6.65-4.075 2.41-0.02 5.323 1.252 8.74 3.816 3.411 2.56 5.447 5.001 6.107 7.324z" fill="#000000" data-fill-palette-color="primary"></path><path d="M74.753 30.908v0l11.211 6.602-1.096 0.753-11.56-6.805c0.029-0.053 0.159-0.282 0.39-0.687 0.231-0.405 0.387-0.693 0.467-0.863 0.08-0.17 0.205-0.461 0.374-0.873 0.175-0.416 0.275-0.772 0.3-1.068 0.026-0.297 0.048-0.636 0.065-1.018 0.013-0.387-0.046-0.773-0.179-1.158-0.133-0.385-0.33-0.767-0.591-1.147v0c-0.962-1.401-2.34-1.978-4.133-1.731-1.799 0.25-3.689 1.056-5.67 2.416v0l-2.67 1.834 12.619 18.372-1.005 0.69-13.303-19.368 3.675-2.524c2.628-1.805 4.927-2.715 6.896-2.729 1.979-0.012 3.511 0.771 4.596 2.35v0c0.705 1.027 0.982 2.171 0.83 3.434-0.148 1.268-0.553 2.441-1.216 3.52z" fill="#000000" data-fill-palette-color="primary"></path><path d="M95.486 8.031l17.513-5.051 0.335 1.161-8.176 2.358 6.176 21.416-1.161 0.335-6.176-21.416-8.176 2.358z" fill="#000000" data-fill-palette-color="primary"></path><path d="M151.545 1.72c-0.907-0.306-2.037-0.475-3.39-0.507-1.347-0.032-2.484 0.084-3.411 0.346-0.927 0.263-1.786 0.77-2.575 1.524-0.783 0.753-1.381 1.86-1.795 3.319-0.414 1.466-0.647 3.32-0.7 5.56-0.053 2.24 0.093 4.099 0.437 5.576 0.344 1.484 0.889 2.621 1.636 3.411 0.753 0.783 1.587 1.327 2.501 1.633 0.914 0.306 2.044 0.475 3.39 0.507 1.354 0.032 2.49-0.083 3.411-0.346 0.927-0.263 1.785-0.767 2.575-1.514 0.783-0.753 1.381-1.863 1.795-3.329 0.414-1.46 0.647-3.309 0.7-5.55 0.053-2.24-0.093-4.102-0.437-5.586-0.344-1.478-0.89-2.611-1.636-3.401-0.753-0.79-1.587-1.338-2.501-1.643zM154.925 21.605c-1.5 1.881-3.939 2.781-7.315 2.702-3.377-0.08-5.77-1.094-7.181-3.044-1.416-1.956-2.074-5.067-1.973-9.33 0.101-4.27 0.905-7.346 2.411-9.226 1.5-1.881 3.939-2.781 7.316-2.702 3.377 0.08 5.77 1.094 7.181 3.044 1.417 1.95 2.074 5.06 1.973 9.33-0.101 4.264-0.905 7.339-2.412 9.226z" fill="#000000" data-fill-palette-color="primary"></path><path d="M178.654 29.617l-1.142-0.426 4.109-11.006c1.494-4.002 3.267-6.642 5.32-7.921 2.046-1.281 4.639-1.336 7.778-0.164v0c3.672 1.371 5.716 3.503 6.131 6.397v0l-10.412 3.678 8.086 3.019-0.427 1.141-11.234-4.194 12.588-4.426c-0.551-1.911-2.269-3.405-5.155-4.483v0c-1.268-0.473-2.38-0.737-3.336-0.79-0.962-0.056-1.939 0.143-2.932 0.596-0.987 0.455-1.914 1.305-2.783 2.549-0.871 1.25-1.699 2.925-2.482 5.024v0z" fill="#000000" data-fill-palette-color="primary"></path><path d="M213.421 46.663l9.657 7.646-0.757 0.956-10.612-8.403 14.586-18.421 0.955 0.756z" fill="#000000" data-fill-palette-color="primary"></path><path d="M235.701 70.891l18.56-14.409 0.747 0.962-18.56 14.409z" fill="#000000" data-fill-palette-color="primary"></path><path d="M272.734 94.804c-0.07-0.955-0.353-2.062-0.849-3.322-0.493-1.254-1.041-2.257-1.643-3.009-0.602-0.753-1.403-1.347-2.403-1.782-0.998-0.429-2.25-0.551-3.756-0.366-1.512 0.188-3.311 0.692-5.396 1.513-2.085 0.821-3.741 1.676-4.969 2.567-1.234 0.893-2.07 1.837-2.509 2.832-0.429 0.998-0.607 1.978-0.535 2.938 0.073 0.961 0.356 2.068 0.849 3.322 0.496 1.26 1.043 2.263 1.643 3.009 0.602 0.753 1.4 1.348 2.395 1.786 0.998 0.429 2.253 0.55 3.765 0.362 1.506-0.185 3.301-0.688 5.386-1.509 2.085-0.821 3.745-1.678 4.979-2.571 1.228-0.891 2.061-1.833 2.499-2.828 0.435-1.001 0.617-1.982 0.544-2.942zM255.719 105.637c-2.316-0.653-4.092-2.551-5.329-5.694-1.237-3.143-1.231-5.743 0.018-7.799 1.253-2.065 3.864-3.878 7.833-5.44 3.975-1.565 7.121-2.017 9.439-1.358 2.316 0.653 4.092 2.551 5.329 5.693 1.237 3.143 1.231 5.743-0.018 7.799-1.247 2.062-3.858 3.876-7.833 5.44-3.968 1.562-7.115 2.015-9.439 1.359z" fill="#000000" data-fill-palette-color="primary"></path><path d="M8.906 181.895l1.15-0.404 4.929 14.046 19.41-15.893-26.387-0.308-0.427-1.216 30.177 0.343-23.345 19.126z" fill="#000000" data-fill-palette-color="primary"></path><path d="M32.783 227.509v0l-1.922-2.39 18.285-14.708 1.922 2.39c2.503 3.112 3.679 6.254 3.528 9.424-0.155 3.166-1.641 5.881-4.458 8.147-2.811 2.261-5.78 3.129-8.906 2.603-3.13-0.532-5.946-2.354-8.449-5.466zM32.568 225.297l1.164 1.448c2.283 2.838 4.819 4.511 7.61 5.021 2.796 0.505 5.475-0.273 8.038-2.335 2.569-2.066 3.903-4.517 4.004-7.352 0.106-2.839-0.983-5.677-3.266-8.515v0l-1.164-1.448z" fill="#000000" data-fill-palette-color="primary"></path><path d="M68.58 259.498l-1.04-0.617 11.977-20.18 1.039 0.617 0.502 25 10.841-18.268 1.039 0.617-11.976 20.18-1.039-0.617-0.481-25.034z" fill="#000000" data-fill-palette-color="primary"></path><path d="M129.991 276.985l0.741 0.943c-1.762 1.599-4.307 2.128-7.635 1.586-3.327-0.542-5.555-1.875-6.683-4-1.129-2.125-1.351-5.288-0.667-9.491 0.686-4.209 1.9-7.142 3.645-8.799 1.744-1.657 4.28-2.214 7.608-1.673v0c3.862 0.629 6.278 2.322 7.249 5.08v0l-11.115 6.595-1.874-0.305 11.474-6.784c-0.92-1.762-2.897-2.889-5.93-3.383v0c-1.33-0.217-2.468-0.258-3.416-0.124-0.953 0.126-1.869 0.508-2.748 1.147-0.886 0.638-1.634 1.651-2.244 3.04-0.61 1.389-1.095 3.189-1.456 5.4-0.359 2.205-0.47 4.063-0.332 5.574 0.137 1.517 0.525 2.716 1.164 3.595 0.631 0.885 1.378 1.538 2.242 1.96 0.856 0.428 1.949 0.75 3.279 0.966v0c3.033 0.494 5.266 0.052 6.698-1.327z" fill="#000000" data-fill-palette-color="primary"></path><path d="M165.617 278.43l-1.187 0.227-4.422-23.045 1.187-0.228 16.957 18.376-4.003-20.862 1.187-0.227 4.421 23.046-1.186 0.227-16.965-18.416z" fill="#000000" data-fill-palette-color="primary"></path><path d="M221.574 218.55l0.806-0.915 21.255 18.715-0.805 0.914zM232.217 206.463l1.154-1.311 1.159 19.136 20.948-1.39-1.147 1.304-20.955 1.397z" fill="#000000" data-fill-palette-color="primary"></path><path d="M253.986 173.044l21.845 8.572-0.445 1.134-10.917-4.284-4.433 11.296 10.918 4.284-0.441 1.125-21.845-8.572 0.441-1.124 9.793 3.842 4.432-11.296-9.793-3.842z" fill="#000000" data-fill-palette-color="primary"></path><path d="M10.978 140.309c0-1.795 1.455-3.25 3.25-3.25 1.795 0 3.25 1.455 3.251 3.25 0 1.795-1.455 3.25-3.251 3.25-1.795 0-3.25-1.455-3.25-3.25z" fill="#000000" data-fill-palette-color="primary"></path><path d="M266.612 140.309c0-1.795 1.455-3.25 3.25-3.25 1.795 0 3.25 1.455 3.251 3.25 0 1.795-1.455 3.25-3.251 3.25-1.795 0-3.25-1.455-3.25-3.25z" fill="#000000" data-fill-palette-color="primary"></path></g></svg></g></svg></g></svg></g><g></g></svg></g><defs></defs></svg><rect width="279.72" height="279.72" fill="none" stroke="none" visibility="hidden"></rect></g></svg></g></svg>