<svg xmlns="http://www.w3.org/2000/svg" version="1.1" xmlns:xlink="http://www.w3.org/1999/xlink" xmlns:svgjs="http://svgjs.dev/svgjs" width="1500" height="1512" viewBox="0 0 1500 1512"><g transform="matrix(1,0,0,1,-1.1117736735457129,0.6121457489878139)"><svg viewBox="0 0 245 247" data-background-color="#ffffff" preserveAspectRatio="xMidYMid meet" height="1512" width="1500" xmlns="http://www.w3.org/2000/svg" xmlns:xlink="http://www.w3.org/1999/xlink"><g id="tight-bounds" transform="matrix(1,0,0,1,0.18158970001246644,-0.09999999999999432)"><svg viewBox="0 0 244.63886596598172 247.2" height="247.2" width="244.63886596598172"><g><svg viewBox="0 0 395.52 399.6607146372063" height="247.2" width="244.63886596598172"><g transform="matrix(1,0,0,1,0,259.2986462766685)"><svg viewBox="0 0 395.52 140.36206836053782" height="140.36206836053782" width="395.52"><g id="textblocktransform"><svg viewBox="0 0 395.52 140.36206836053782" height="140.36206836053782" width="395.52" id="textblock"><g><svg viewBox="0 0 395.52 75.70459267070919" height="75.70459267070919" width="395.52"><g transform="matrix(1,0,0,1,0,0)"><svg width="395.52" viewBox="2.8 -35.85 189.63 36.300000000000004" height="75.70459267070919" data-palette-color="#000000"><path d="M2.8 0.15L2.8 0.15Q2.8-0.55 2.85-1.07 2.9-1.6 3.05-2L3.05-2Q4.4-2.1 5.15-2.48 5.9-2.85 6.2-3.78 6.5-4.7 6.5-6.35L6.5-6.35 6.5-27.45Q6.5-29.15 6.2-30.05 5.9-30.95 5.15-31.35 4.4-31.75 3.05-31.8L3.05-31.8Q2.9-32.2 2.85-32.75 2.8-33.3 2.8-33.95L2.8-33.95Q4.75-33.85 6.58-33.83 8.4-33.8 9.6-33.8L9.6-33.8Q10.3-33.8 11.58-33.83 12.85-33.85 14.1-33.88 15.35-33.9 15.95-33.9L15.95-33.9Q20.1-33.9 22.6-32.55 25.1-31.2 26.2-29 27.3-26.8 27.3-24.2L27.3-24.2Q27.3-21.35 26.03-18.7 24.75-16.05 22.25-14.35 19.75-12.65 15.95-12.65L15.95-12.65Q13.85-12.65 12.45-13.2L12.45-13.2Q12.35-13.75 12.35-14.25 12.35-14.75 12.5-15.25L12.5-15.25Q13.15-15.1 13.8-15.03 14.45-14.95 15.15-14.95L15.15-14.95Q17-14.95 18.6-15.6 20.2-16.25 21.2-17.93 22.2-19.6 22.2-22.75L22.2-22.75Q22.2-26.75 20.23-29.23 18.25-31.7 13.75-31.7L13.75-31.7Q13.2-31.7 12.48-31.63 11.75-31.55 10.45-31.25L10.45-31.25 11.2-32 11.2-7.35Q11.2-5.2 11.65-4.08 12.1-2.95 13.1-2.53 14.1-2.1 15.65-2L15.65-2Q15.8-1.6 15.85-1.07 15.9-0.55 15.9 0.15L15.9 0.15Q15.15 0.1 14.13 0.08 13.1 0.05 11.95 0.03 10.8 0 9.6 0L9.6 0Q8.45 0 7.1 0.03 5.75 0.05 4.6 0.08 3.45 0.1 2.8 0.15ZM42.35 0.45L42.35 0.45Q38.95 0.45 36.4-1.03 33.85-2.5 32.45-5.18 31.05-7.85 31.05-11.45L31.05-11.45Q31.05-14.85 32.5-17.55 33.95-20.25 36.5-21.8 39.05-23.35 42.35-23.35L42.35-23.35Q45.9-23.35 48.42-21.85 50.95-20.35 52.3-17.68 53.65-15 53.65-11.45L53.65-11.45Q53.65-8.05 52.22-5.35 50.8-2.65 48.27-1.1 45.75 0.45 42.35 0.45ZM42.75-1.95L42.75-1.95Q45.75-1.95 47.2-4.42 48.65-6.9 48.65-10.85L48.65-10.85Q48.65-13.95 47.72-16.23 46.8-18.5 45.25-19.73 43.7-20.95 41.85-20.95L41.85-20.95Q38.95-20.95 37.52-18.6 36.1-16.25 36.1-12.5L36.1-12.5Q36.1-9.15 36.92-6.78 37.75-4.4 39.25-3.18 40.75-1.95 42.75-1.95ZM65.7-11.35L65.7-7.35Q65.7-5.2 66.15-4.08 66.59-2.95 67.59-2.53 68.59-2.1 70.15-2L70.15-2Q70.3-1.6 70.34-1.07 70.4-0.55 70.4 0.15L70.4 0.15Q69.65 0.1 68.62 0.08 67.59 0.05 66.45 0.03 65.3 0 64.09 0L64.09 0Q62.35 0 60.42 0.03 58.5 0.05 57.5 0.15L57.5 0.15Q57.5-0.55 57.55-1.07 57.6-1.6 57.75-2L57.75-2Q59.1-2.1 59.85-2.48 60.6-2.85 60.9-3.78 61.2-4.7 61.2-6.35L61.2-6.35 61.2-11.35 65.7-11.35ZM64.84-15.35L65.7-14.65 65.7-10.7 61.2-10.7 61.2-16.25 65.7-21.15Q65.7-19.45 65.4-18.07 65.09-16.7 64.84-15.35L64.84-15.35ZM65.7-12.15L64.59-15.05Q65.15-16.45 65.45-17.35 65.75-18.25 66.09-18.85L66.09-18.85Q67.2-20.6 68.7-21.75 70.2-22.9 72.15-22.9L72.15-22.9Q74.05-22.9 75.59-21.7L75.59-21.7Q75.5-20.9 75.4-19.85 75.3-18.8 75.27-17.75 75.25-16.7 75.25-15.8L75.25-15.8Q74.8-15.65 74.02-15.5 73.25-15.35 72.4-15.35L72.4-15.35Q72.3-17.75 71.62-18.5 70.95-19.25 69.95-19.25L69.95-19.25Q69.09-19.25 68.09-18.28 67.09-17.3 66.4-15.7 65.7-14.1 65.7-12.15L65.7-12.15ZM65.7-21.15L61.2-10.7 61.2-16.25Q61.2-17.45 60.95-18.2 60.7-18.95 59.9-19.35 59.1-19.75 57.45-19.8L57.45-19.8Q57.45-20.35 57.55-20.8 57.65-21.25 57.9-21.65L57.9-21.65Q59.45-21.75 61.45-22.25 63.45-22.75 64.59-23.35L64.59-23.35Q65.05-23.2 65.37-22.73 65.7-22.25 65.7-21.15L65.7-21.15ZM86.99 0.45L86.99 0.45Q84.04 0.45 82.62-1.07 81.19-2.6 81.19-6L81.19-6 81.19-19.55Q80.44-19.8 79.64-19.98 78.84-20.15 77.59-20.2L77.59-20.2Q77.59-20.85 77.69-21.33 77.79-21.8 78.04-22.4L78.04-22.4 81.19-22.4 81.19-29Q82.19-29.25 83.17-29.8 84.14-30.35 84.89-31L84.89-31Q85.39-30.8 85.54-30.4 85.69-30 85.69-28.4L85.69-28.4 85.69-22.4 92.19-22.4Q92.19-21.9 92.09-21.33 91.99-20.75 91.74-20.2L91.74-20.2Q89.94-20.15 88.44-19.98 86.94-19.8 85.69-19.55L85.69-19.55 85.69-7.05Q85.69-5.4 86.04-4.33 86.39-3.25 87.04-2.75 87.69-2.25 88.59-2.25L88.59-2.25Q89.64-2.25 90.42-2.55 91.19-2.85 91.89-3.45L91.89-3.45Q92.54-2.7 92.64-1.8L92.64-1.8Q91.84-0.85 90.22-0.2 88.59 0.45 86.99 0.45ZM103.99-22.4L109.54-22.4Q109.54-21.9 109.44-21.28 109.34-20.65 109.04-20.15L109.04-20.15Q107.59-20.15 106.31-19.98 105.04-19.8 103.99-19.45L103.99-19.45 103.99-22.4ZM99.94-11.1L99.94-24.4Q99.94-28.15 101.47-30.68 102.99-33.2 105.39-34.45 107.79-35.7 110.39-35.7L110.39-35.7Q112.34-35.7 113.34-35.33 114.34-34.95 115.14-34.45L115.14-34.45Q115.04-32.9 114.99-31.43 114.94-29.95 114.94-28.6L114.94-28.6Q114.29-28.4 113.54-28.3 112.79-28.2 112.09-28.2L112.09-28.2Q112.09-30.25 111.19-31.6 110.29-32.95 108.19-32.95L108.19-32.95Q106.84-32.95 106.02-32.13 105.19-31.3 104.81-29.75 104.44-28.2 104.44-25.95L104.44-25.95 104.44-11.1 99.94-11.1ZM96.64-22.4L100.69-22.4 100.69-19.55Q99.44-19.9 98.14-20.03 96.84-20.15 95.94-20.15L95.94-20.15Q95.94-20.8 96.11-21.35 96.29-21.9 96.64-22.4L96.64-22.4ZM104.44-11.35L104.44-7.35Q104.44-5.2 104.89-4.08 105.34-2.95 106.34-2.53 107.34-2.1 108.89-2L108.89-2Q109.04-1.6 109.09-1.07 109.14-0.55 109.14 0.15L109.14 0.15Q108.39 0.1 107.37 0.08 106.34 0.05 105.19 0.03 104.04 0 102.84 0L102.84 0Q101.09 0 99.17 0.03 97.24 0.05 96.24 0.15L96.24 0.15Q96.24-0.55 96.29-1.07 96.34-1.6 96.49-2L96.49-2Q97.84-2.1 98.59-2.48 99.34-2.85 99.64-3.78 99.94-4.7 99.94-6.35L99.94-6.35 99.94-11.35 104.44-11.35ZM124.54 0.45L124.54 0.45Q121.14 0.45 118.59-1.03 116.04-2.5 114.64-5.18 113.24-7.85 113.24-11.45L113.24-11.45Q113.24-14.85 114.69-17.55 116.14-20.25 118.69-21.8 121.24-23.35 124.54-23.35L124.54-23.35Q128.09-23.35 130.61-21.85 133.14-20.35 134.49-17.68 135.84-15 135.84-11.45L135.84-11.45Q135.84-8.05 134.41-5.35 132.99-2.65 130.46-1.1 127.94 0.45 124.54 0.45ZM124.94-1.95L124.94-1.95Q127.94-1.95 129.39-4.42 130.84-6.9 130.84-10.85L130.84-10.85Q130.84-13.95 129.91-16.23 128.99-18.5 127.44-19.73 125.89-20.95 124.04-20.95L124.04-20.95Q121.14-20.95 119.71-18.6 118.29-16.25 118.29-12.5L118.29-12.5Q118.29-9.15 119.11-6.78 119.94-4.4 121.44-3.18 122.94-1.95 124.94-1.95ZM139.64 0.15L139.64 0.15Q139.64-0.35 139.69-0.93 139.74-1.5 139.89-2L139.89-2Q141.89-2 142.61-2.93 143.34-3.85 143.34-6.35L143.34-6.35 143.34-28.75Q143.34-29.95 143.11-30.73 142.89-31.5 142.09-31.9 141.28-32.3 139.59-32.3L139.59-32.3Q139.59-32.85 139.69-33.3 139.78-33.75 140.03-34.15L140.03-34.15Q140.78-34.15 142.16-34.4 143.53-34.65 144.84-35.05 146.14-35.45 146.74-35.85L146.74-35.85Q147.19-35.7 147.51-35.25 147.84-34.8 147.84-33.85L147.84-33.85 147.84-6.35Q147.84-3.85 148.51-2.93 149.19-2 150.78-2L150.78-2Q150.94-1.5 150.99-0.85 151.03-0.2 151.03 0.15L151.03 0.15Q150.19 0.1 149.24 0.08 148.28 0.05 147.31 0.03 146.34 0 145.39 0L145.39 0Q144.44 0 143.41 0.03 142.39 0.05 141.44 0.08 140.49 0.1 139.64 0.15ZM154.63 0.15L154.63 0.15Q154.63-0.35 154.68-0.93 154.73-1.5 154.88-2L154.88-2Q156.88-2 157.61-2.93 158.33-3.85 158.33-6.35L158.33-6.35 158.33-16.25Q158.33-17.45 158.11-18.23 157.88-19 157.08-19.4 156.28-19.8 154.58-19.8L154.58-19.8Q154.58-20.35 154.68-20.8 154.78-21.25 155.03-21.65L155.03-21.65Q155.78-21.65 157.16-21.9 158.53-22.15 159.83-22.55 161.13-22.95 161.73-23.35L161.73-23.35Q162.18-23.2 162.51-22.75 162.83-22.3 162.83-21.35L162.83-21.35 162.83-6.35Q162.83-3.85 163.51-2.93 164.18-2 165.78-2L165.78-2Q165.93-1.5 165.98-0.85 166.03-0.2 166.03 0.15L166.03 0.15Q165.18 0.1 164.23 0.08 163.28 0.05 162.31 0.03 161.33 0 160.38 0L160.38 0Q159.43 0 158.41 0.03 157.38 0.05 156.43 0.08 155.48 0.1 154.63 0.15ZM160.18-29L160.18-29Q158.93-29 158.08-29.85 157.23-30.7 157.23-31.9L157.23-31.9Q157.23-33.25 158.13-34.1 159.03-34.95 160.18-34.95L160.18-34.95Q161.53-34.95 162.36-34.1 163.18-33.25 163.18-31.9L163.18-31.9Q163.18-30.75 162.31-29.88 161.43-29 160.18-29ZM181.13 0.45L181.13 0.45Q177.73 0.45 175.18-1.03 172.63-2.5 171.23-5.18 169.83-7.85 169.83-11.45L169.83-11.45Q169.83-14.85 171.28-17.55 172.73-20.25 175.28-21.8 177.83-23.35 181.13-23.35L181.13-23.35Q184.68-23.35 187.21-21.85 189.73-20.35 191.08-17.68 192.43-15 192.43-11.45L192.43-11.45Q192.43-8.05 191.01-5.35 189.58-2.65 187.06-1.1 184.53 0.45 181.13 0.45ZM181.53-1.95L181.53-1.95Q184.53-1.95 185.98-4.42 187.43-6.9 187.43-10.85L187.43-10.85Q187.43-13.95 186.51-16.23 185.58-18.5 184.03-19.73 182.48-20.95 180.63-20.95L180.63-20.95Q177.73-20.95 176.31-18.6 174.88-16.25 174.88-12.5L174.88-12.5Q174.88-9.15 175.71-6.78 176.53-4.4 178.03-3.18 179.53-1.95 181.53-1.95Z" opacity="1" transform="matrix(1,0,0,1,0,0)" fill="#000000" class="wordmark-text-0" data-fill-palette-color="primary" id="text-0"></path></svg></g></svg></g><g transform="matrix(1,0,0,1,0,93.57663009003953)"><svg viewBox="0 0 395.52 46.785438270498275" height="46.785438270498275" width="395.52"><g transform="matrix(1,0,0,1,0,0)"><svg width="395.52" viewBox="0.925 -39.05 332.235 39.3" height="46.785438270498275" data-palette-color="#000000"><path d="M2.85 0L2.85 0Q1.7 0 1.2-0.95 0.7-1.9 1.1-2.8L1.1-2.8 15.8-37.7Q16.35-39.05 17.7-39.05L17.7-39.05Q19-39.05 19.55-37.7L19.55-37.7 34.3-2.75Q34.75-1.8 34.18-0.9 33.6 0 32.55 0L32.55 0Q31.95 0 31.48-0.3 31-0.6 30.7-1.2L30.7-1.2 16.95-34.55 18.5-34.55 4.65-1.2Q4.4-0.6 3.93-0.3 3.45 0 2.85 0ZM29.45-9.3L6.15-9.3 7.65-12.65 27.95-12.65 29.45-9.3ZM68.21 0.25L68.21 0.25Q64.26 0.25 61.11-1.58 57.96-3.4 56.14-6.55 54.31-9.7 54.31-13.7L54.31-13.7Q54.31-17.65 56.09-20.8 57.86-23.95 60.91-25.78 63.96-27.6 67.81-27.6L67.81-27.6Q71.16-27.6 73.86-26.18 76.56-24.75 78.21-22.4L78.21-22.4 78.21-37.1Q78.21-38 78.76-38.53 79.31-39.05 80.16-39.05L80.16-39.05Q81.01-39.05 81.56-38.53 82.11-38 82.11-37.1L82.11-37.1 82.11-13.5Q82.01-9.6 80.19-6.48 78.36-3.35 75.24-1.55 72.11 0.25 68.21 0.25ZM68.21-3.25L68.21-3.25Q71.11-3.25 73.39-4.63 75.66-6 76.99-8.35 78.31-10.7 78.31-13.7L78.31-13.7Q78.31-16.65 76.99-19.03 75.66-21.4 73.39-22.75 71.11-24.1 68.21-24.1L68.21-24.1Q65.36-24.1 63.06-22.75 60.76-21.4 59.41-19.03 58.06-16.65 58.06-13.7L58.06-13.7Q58.06-10.7 59.41-8.35 60.76-6 63.06-4.63 65.36-3.25 68.21-3.25ZM131.67 0L131.67 0Q130.82 0 130.27-0.55 129.72-1.1 129.72-1.9L129.72-1.9 129.72-14.9Q129.72-18 128.55-20 127.37-22 125.35-23 123.32-24 120.77-24L120.77-24Q118.32-24 116.35-23.05 114.37-22.1 113.22-20.45 112.07-18.8 112.07-16.7L112.07-16.7 109.32-16.7Q109.42-19.85 111.02-22.33 112.62-24.8 115.27-26.23 117.92-27.65 121.17-27.65L121.17-27.65Q124.72-27.65 127.52-26.18 130.32-24.7 131.95-21.85 133.57-19 133.57-14.9L133.57-14.9 133.57-1.9Q133.57-1.1 133.02-0.55 132.47 0 131.67 0ZM110.17 0L110.17 0Q109.27 0 108.75-0.53 108.22-1.05 108.22-1.9L108.22-1.9 108.22-25.4Q108.22-26.3 108.75-26.83 109.27-27.35 110.17-27.35L110.17-27.35Q111.02-27.35 111.55-26.83 112.07-26.3 112.07-25.4L112.07-25.4 112.07-1.9Q112.07-1.05 111.55-0.53 111.02 0 110.17 0ZM171.58 0.25L171.58 0.25Q167.53 0.25 164.41-1.53 161.28-3.3 159.51-6.45 157.73-9.6 157.73-13.65L157.73-13.65Q157.73-17.75 159.41-20.88 161.08-24 164.03-25.8 166.98-27.6 170.83-27.6L170.83-27.6Q174.63-27.6 177.46-25.88 180.28-24.15 181.83-21.1 183.38-18.05 183.38-14.15L183.38-14.15Q183.38-13.35 182.88-12.88 182.38-12.4 181.58-12.4L181.58-12.4 160.33-12.4 160.33-15.6 181.98-15.6 179.83-14.05Q179.88-16.95 178.78-19.25 177.68-21.55 175.66-22.85 173.63-24.15 170.83-24.15L170.83-24.15Q167.98-24.15 165.83-22.8 163.68-21.45 162.51-19.07 161.33-16.7 161.33-13.65L161.33-13.65Q161.33-10.6 162.66-8.25 163.98-5.9 166.28-4.55 168.58-3.2 171.58-3.2L171.58-3.2Q173.38-3.2 175.21-3.83 177.03-4.45 178.13-5.4L178.13-5.4Q178.68-5.85 179.38-5.88 180.08-5.9 180.58-5.5L180.58-5.5Q181.23-4.9 181.26-4.2 181.28-3.5 180.68-3L180.68-3Q179.03-1.6 176.48-0.68 173.93 0.25 171.58 0.25ZM230.44 0L230.44 0Q229.59 0 229.04-0.55 228.49-1.1 228.49-1.9L228.49-1.9 228.49-14.9Q228.49-18 227.32-20 226.14-22 224.12-23 222.09-24 219.54-24L219.54-24Q217.09-24 215.12-23.05 213.14-22.1 211.99-20.45 210.84-18.8 210.84-16.7L210.84-16.7 208.09-16.7Q208.19-19.85 209.79-22.33 211.39-24.8 214.04-26.23 216.69-27.65 219.94-27.65L219.94-27.65Q223.49-27.65 226.29-26.18 229.09-24.7 230.72-21.85 232.34-19 232.34-14.9L232.34-14.9 232.34-1.9Q232.34-1.1 231.79-0.55 231.24 0 230.44 0ZM208.94 0L208.94 0Q208.04 0 207.52-0.53 206.99-1.05 206.99-1.9L206.99-1.9 206.99-25.4Q206.99-26.3 207.52-26.83 208.04-27.35 208.94-27.35L208.94-27.35Q209.79-27.35 210.32-26.83 210.84-26.3 210.84-25.4L210.84-25.4 210.84-1.9Q210.84-1.05 210.32-0.53 209.79 0 208.94 0ZM260.4 0L260.4 0Q259.6 0 259.03-0.58 258.45-1.15 258.45-1.95L258.45-1.95 258.45-37.1Q258.45-37.9 259.03-38.48 259.6-39.05 260.4-39.05L260.4-39.05Q261.2-39.05 261.78-38.48 262.35-37.9 262.35-37.1L262.35-37.1 262.35-20.1 280.6-38.35Q281-38.75 281.35-38.9 281.7-39.05 282.15-39.05L282.15-39.05Q283.05-39.05 283.5-38.5 283.95-37.95 283.93-37.18 283.9-36.4 283.3-35.7L283.3-35.7 269.6-22 283.45-3.1Q283.9-2.45 283.83-1.73 283.75-1 283.25-0.5 282.75 0 282.05 0L282.05 0Q280.95 0 280.4-0.85L280.4-0.85 266.8-19.25 262.35-14.75 262.35-1.95Q262.35-1.15 261.78-0.58 261.2 0 260.4 0ZM331.26 0L331.26 0Q330.41 0 329.86-0.55 329.31-1.1 329.31-1.9L329.31-1.9 329.31-14.9Q329.31-18 328.14-20 326.96-22 324.94-23 322.91-24 320.36-24L320.36-24Q317.91-24 315.94-23.05 313.96-22.1 312.81-20.45 311.66-18.8 311.66-16.7L311.66-16.7 308.91-16.7Q309.01-19.85 310.61-22.33 312.21-24.8 314.86-26.23 317.51-27.65 320.76-27.65L320.76-27.65Q324.31-27.65 327.11-26.18 329.91-24.7 331.54-21.85 333.16-19 333.16-14.9L333.16-14.9 333.16-1.9Q333.16-1.1 332.61-0.55 332.06 0 331.26 0ZM309.76 0L309.76 0Q308.86 0 308.34-0.53 307.81-1.05 307.81-1.9L307.81-1.9 307.81-25.4Q307.81-26.3 308.34-26.83 308.86-27.35 309.76-27.35L309.76-27.35Q310.61-27.35 311.14-26.83 311.66-26.3 311.66-25.4L311.66-25.4 311.66-1.9Q311.66-1.05 311.14-0.53 310.61 0 309.76 0ZM309.76-11.15L309.76-11.15Q308.86-11.15 308.34-11.7 307.81-12.25 307.81-13.1L307.81-13.1 307.81-37.1Q307.81-38 308.34-38.53 308.86-39.05 309.76-39.05L309.76-39.05Q310.61-39.05 311.14-38.53 311.66-38 311.66-37.1L311.66-37.1 311.66-13.1Q311.66-12.25 311.14-11.7 310.61-11.15 309.76-11.15Z" opacity="1" transform="matrix(1,0,0,1,0,0)" fill="#000000" class="slogan-text-1" data-fill-palette-color="secondary" id="text-1"></path></svg></g></svg></g></svg></g></svg></g><g transform="matrix(1,0,0,1,85.98271428099609,0)"><svg viewBox="0 0 223.5545714380078 223.5545714380078" height="223.5545714380078" width="223.5545714380078"><g><svg></svg></g><g id="icon-0"><svg viewBox="0 0 223.5545714380078 223.5545714380078" height="223.5545714380078" width="223.5545714380078"><g><path d="M0 111.777c0-61.733 50.044-111.777 111.777-111.777 61.733 0 111.777 50.044 111.778 111.777 0 61.733-50.044 111.777-111.778 111.778-61.733 0-111.777-50.044-111.777-111.778zM111.777 216.727c57.962 0 104.95-46.988 104.95-104.95 0-57.962-46.988-104.95-104.95-104.95-57.962 0-104.95 46.988-104.95 104.95 0 57.962 46.988 104.95 104.95 104.95z" data-fill-palette-color="accent" fill="#000000" stroke="transparent"></path><ellipse rx="110.65951286181387" ry="110.65951286181387" cx="111.7772857190039" cy="111.7772857190039" fill="#000000" stroke="transparent" stroke-width="0" fill-opacity="1" data-fill-palette-color="accent"></ellipse></g><g transform="matrix(1,0,0,1,50.55826266625737,79.25467972223231)"><svg viewBox="0 0 122.43804610549306 65.04521199354319" height="65.04521199354319" width="122.43804610549306"><g><svg xmlns="http://www.w3.org/2000/svg" version="1.1" data-icon="project" data-container-transform="translate(0 7)" viewBox="0 7 32 17" x="0" y="0" height="65.04521199354319" width="122.43804610549306" class="icon-cg-0" data-fill-palette-color="quaternary" id="cg-0"><path d="M0 0v17h1v-17h-1z m31 0v17h1v-17h-1z m-28 2v3h9v-3h-9z m5 5v3h14v-3h-14z m10 5v3h11v-3h-11z" transform="translate(0 7)" fill="#c8c8c8" data-fill-palette-color="quaternary"></path></svg></g></svg></g></svg></g></svg></g><g></g></svg></g><defs></defs></svg><rect width="244.63886596598172" height="247.2" fill="none" stroke="none" visibility="hidden"></rect></g></svg></g></svg>